<?xml version="1.0" encoding="UTF-8"?><svg id="Calque_1" xmlns="http://www.w3.org/2000/svg" viewBox="0 0 132 108.5"><defs><style>.cls-1{fill:none;stroke:#feedcd;stroke-miterlimit:10;stroke-width:3px;}</style></defs><g id="Calque_1-2"><g id="Groupe_941"><rect id="Rectangle_925" class="cls-1" x="46.3" y="55.02" width="38.82" height="6.68"/><g id="Groupe_938"><g id="Groupe_937"><path id="Tracé_204819" class="cls-1" d="m0,58.92c9.96,0,8.24-1.31,9.01,23.52.43,13.86.43,8.98.43,25.88"/><path id="Tracé_204820" class="cls-1" d="m34.62,108.32l-.52-23.63-25.01-.06"/></g><ellipse id="Ellipse_173" class="cls-1" cx="27.8" cy="10.18" rx="6.82" ry="8.68"/><path id="Tracé_204821" class="cls-1" d="m22.97,78.92c-1.32-1.5-2.1-3.4-2.21-5.4-.73-9.62-2.89-41.36.22-45.32,3.67-4.67,7.87-7.34,13.64,0l8.39,10.68,10.49-8.01s5.73-2.71,3.15,4.01c-1.3,3.37-9.04,12.34-11.59,16.66-.59,1.27-2.1,1.83-3.37,1.23-.41-.19-.76-.48-1.02-.85l-6.04-7.69v22.7s12.59-1.34,14.69,4.01,6.72,28.29,4.2,34.72c0,0,0,1.34-3.15,1.34-2.1,0-3.25-6.93-3.9-9.46-.18-.69-.32-1.37-.45-2.07-.46-2.65-1.89-10.74-2.59-13.57-.17-.92-.83-1.68-1.72-1.98-1.97-.55-3.99-.88-6.03-.96-2.61,0-11.52,1.26-12.7-.02v-.02Z"/><path id="Tracé_204822" class="cls-1" d="m53.51,16.19h6.29s0,5.55-3.15,5.55-3.15-5.55-3.15-5.55h.01Z"/><line id="Ligne_2161" class="cls-1" x1="56.65" y1="31.54" x2="56.65" y2="21.73"/></g><g id="Groupe_940"><g id="Groupe_939"><path id="Tracé_204823" class="cls-1" d="m132,58.92c-9.96,0-8.24-1.31-9.01,23.52-.43,13.86-.43,8.98-.43,25.88"/><path id="Tracé_204824" class="cls-1" d="m97.38,108.32l.52-23.63,25.01-.06"/></g><ellipse id="Ellipse_174" class="cls-1" cx="104.2" cy="10.18" rx="6.82" ry="8.68"/><path id="Tracé_204825" class="cls-1" d="m109.03,78.92c1.32-1.5,2.1-3.4,2.21-5.4.73-9.62,2.89-41.36-.22-45.32-3.67-4.67-7.87-7.34-13.64,0s-8.39,10.68-8.39,10.68c0,0-10.49-8.01-12.59-8.01,0,0-4.2-1.34-3.15,4.01.72,3.64,11.14,12.34,13.69,16.66.59,1.27,2.1,1.83,3.37,1.23.41-.19.76-.48,1.02-.85l6.04-7.69v22.7s-12.59-1.34-14.69,4.01-6.72,28.29-4.2,34.72c0,0,0,1.34,3.15,1.34,2.1,0,3.25-6.93,3.9-9.46.18-.69.32-1.37.45-2.07.46-2.65,1.89-10.74,2.59-13.57.17-.92.83-1.68,1.72-1.98,1.97-.55,3.99-.88,6.03-.96,2.61,0,11.52,1.26,12.7-.02v-.02Z"/><path id="Tracé_204826" class="cls-1" d="m70.98,16.19h6.29s0,5.55-3.15,5.55-3.15-5.55-3.15-5.55h.01Z"/><line id="Ligne_2162" class="cls-1" x1="74.13" y1="31.54" x2="74.13" y2="21.73"/></g></g></g></svg>