<?xml version="1.0" encoding="UTF-8"?><svg id="Calque_1" xmlns="http://www.w3.org/2000/svg" viewBox="0 0 85.51 115.37"><defs><style>.cls-1{fill:none;stroke:#feedcd;stroke-miterlimit:10;stroke-width:3px;}</style></defs><g id="Calque_1-2"><path id="Tracé_204818" class="cls-1" d="m51.51,73.88l-1.05,5.94,5.58-3.56,3.22-2.07c1.53,7.09,4.14,22.82-.2,33.43l-2.13,5.22,5.9-2.09c35.17-12.38,16.12-59.12,15.31-61.1l-1.1-2.62-2.87,1.24-7.03,3.05c4-27.76-21.08-43.7-21.34-43.87l-6.53-4.05,2.11,6.73c.1.33,2.28,9.18-14.87,20.25-15.74,10.15-14.66,27.18-13.11,35.12l-6.34-1.65-2.94-.77-.66,2.6c-7.07,27.36,6.33,39.02,18.81,43.98l6.24,2.48-2.37-5.59c-2.16-5.13-2.7-11.84-1.64-19.97l2.7,1.03,5.04,1.93-1.08-4.68c-.04-.2-4.22-19.11,5.5-28.36,5.38-5.11,7.87-9.92,8.98-13.66,5.85,9.21,7.96,20.32,5.88,31.03h-.01Z"/></g></svg>