<?xml version="1.0" encoding="UTF-8"?><svg id="Calque_1" xmlns="http://www.w3.org/2000/svg" viewBox="0 0 136.39 118.73"><defs><style>.cls-1{fill:none;}.cls-1,.cls-2{stroke:#feedcd;stroke-miterlimit:10;stroke-width:3px;}.cls-2{fill:#fff;}</style></defs><g id="Calque_1-2"><g id="Groupe_936"><path id="Tracé_204809" class="cls-1" d="m59.97,2c.26,0,4.81,52.48,10.92,56.93,3.64,2.65-43.46.92-54.59.43-.41-.02-6.97-.77-3.33-2.42,5.68-2.59,7.94-54.28,7.94-54.61,0-.99,38.86-.35,39.06-.33Z"/><path id="Tracé_204810" class="cls-1" d="m28.3,18.55h26.23c1.99,0,3.69,1.44,4,3.41l3.3,20.49c.37,2.31-1.2,4.48-3.5,4.85-.22.04-.44.05-.67.05H24.8c-2.01,0-3.64-1.63-3.64-3.64,0-.18.01-.35.04-.53l3.17-21.24c.29-1.94,1.96-3.38,3.92-3.38h.01Z"/><ellipse id="Ellipse_167" class="cls-2" cx="27.37" cy="55.62" rx="4.14" ry=".99"/><ellipse id="Ellipse_168" class="cls-2" cx="54.84" cy="55.62" rx="4.14" ry=".99"/><path id="Tracé_204811" class="cls-1" d="m21.51,1.83l37.84-.33c.36,0,.68.25.76.6l.85,9.99H20.58l.26-9.67c.04-.34.33-.59.67-.59Z"/><path id="Tracé_204812" class="cls-2" d="m26.81,54.99s-.04-.05-.05-.08c-.14-.51-1.42-5.41.01-5.41h1.32c.11,0,.21.04.27.13.6,1.73.57,3.62-.08,5.33-.47.19-.99.2-1.47.04h0Z"/><path id="Tracé_204813" class="cls-2" d="m54.28,54.82s-.04-.05-.05-.08c-.14-.51-1.42-5.41,0-5.41h1.32c.11,0,.21.04.27.13.6,1.73.57,3.62-.08,5.33-.47.19-.99.2-1.47.04h0Z"/><rect id="Rectangle_922" class="cls-1" x="28.69" y="74.32" width="24.82" height="14.23"/><rect id="Rectangle_923" class="cls-2" x="32.99" y="78.95" width="2.32" height="2.32"/><rect id="Rectangle_924" class="cls-2" x="47.22" y="78.95" width="2.32" height="2.32"/><path id="Tracé_204814" class="cls-1" d="m127.9,74.81c-5.66-4.24-60-2.41-60-1,0,.05.02-1.03,0-1v-4l.19-9-54.19-.05v57l-1.5.38c17.17-.13,38.33-.26,55.5-.38v-22.95c2.18,2.12,4.73,3.82,7.53,5,.04.01.09.03.14.04.68-2.18,1.15-3.66,1.15-3.66l.32-.4s1.3-.8,1.95.4c.17.31-.06,1.88-.49,4.03,8.37,2.78,30.31,2.8,38.93.06-.44-2.18-.67-3.77-.5-4.09.65-1.21,1.95-.4,1.95-.4l.32.4s.49,1.53,1.19,3.76c.16-.03.33-.08.48-.14,2.27-1.21,14.02-11.95,14.02-15,0-3.95-3-6-7-9h0Z"/><path id="Tracé_204815" class="cls-1" d="m71.21,116.56c.97,1.21,2.6.4,2.92,0,.24-.3,3.15-11.16,4.38-17.28-.99-.05-1.97-.18-2.94-.37-1.82,5.86-5.07,16.77-4.36,17.65Z"/><path id="Tracé_204816" class="cls-1" d="m121.82,116.56c.32.4,1.95,1.21,2.92,0,.71-.87-2.51-11.67-4.33-17.55-.98.16-1.97.27-2.96.33,1.24,6.13,4.13,16.92,4.37,17.22Z"/><circle id="Ellipse_169" class="cls-2" cx="77.79" cy="78.97" r="1.01"/><circle id="Ellipse_170" class="cls-2" cx="91.19" cy="78.97" r="1.01"/><circle id="Ellipse_171" class="cls-2" cx="104.6" cy="78.97" r="1.01"/><circle id="Ellipse_172" class="cls-2" cx="118.01" cy="78.97" r="1.01"/><path id="Tracé_204817" class="cls-1" d="m68.9,94.81s-9-8-8-12,9-10,9-10"/></g></g></svg>