<?xml version="1.0" encoding="UTF-8"?><svg id="Calque_2" xmlns="http://www.w3.org/2000/svg" viewBox="0 0 133.5 116.5"><defs><style>.cls-1{fill:none;stroke:#feedcd;stroke-miterlimit:10;stroke-width:3px;}</style></defs><g id="Calque_1-2"><g id="Calque_1-2"><g id="Groupe_944"><rect id="Rectangle_926" class="cls-1" x="1.5" y="1.5" width="115.19" height="7"/><path id="Tracé_204827" class="cls-1" d="m61.92,25.5l-25.78,29c-1.46,6.85,53.17,7,50.83.56-.63-1.74-25.05-29.56-25.05-29.56Z"/><rect id="Rectangle_927" class="cls-1" x="45.29" y="84.32" width="33.13" height="5.56"/><g id="Groupe_942"><path id="Tracé_204828" class="cls-1" d="m100.69,75.05c-8.5,0-7.03-1.09-7.69,19.58-.37,11.54-.37,7.47-.37,21.54"/><path id="Tracé_204829" class="cls-1" d="m71.14,116.17l.45-19.67,21.34-.05"/></g><g id="Groupe_943"><path id="Tracé_204830" class="cls-1" d="m25.56,75.05c8.5,0,7.03-1.09,7.69,19.58.37,11.54.37,7.47.37,21.54"/><path id="Tracé_204831" class="cls-1" d="m55.11,116.17l-.45-19.67-21.34-.05"/></g><rect id="Rectangle_928" class="cls-1" x="94.1" y="12.95" width="6.42" height="20.91"/><rect id="Rectangle_929" class="cls-1" x="94.1" y="41.82" width="6.42" height="20.91"/><rect id="Rectangle_930" class="cls-1" x="106.94" y="12.95" width="6.42" height="20.91"/><rect id="Rectangle_931" class="cls-1" x="106.94" y="41.82" width="6.42" height="20.91"/><rect id="Rectangle_932" class="cls-1" x="106.94" y="70.7" width="6.42" height="20.91"/><rect id="Rectangle_933" class="cls-1" x="119.77" y="12.95" width="6.42" height="20.91"/><rect id="Rectangle_934" class="cls-1" x="119.77" y="41.82" width="6.42" height="20.91"/><rect id="Rectangle_935" class="cls-1" x="119.77" y="70.7" width="6.42" height="20.91"/><path id="Tracé_204832" class="cls-1" d="m118.71,4.5h13.29v112"/><line id="Ligne_2163" class="cls-1" x1="85.28" y1="12.5" x2="85.28" y2="45"/><path id="Tracé_204833" class="cls-1" d="m10.94,107.4h5.15c.57,0,.97.68.81,1.36l-1.42,5.74h-3.52l-1.77-5.72c-.21-.66.19-1.38.76-1.38h-.01Z"/><path id="Tracé_204834" class="cls-1" d="m13.53,107.4c2.01-5.99-7.9-18.38-7.58-17.61,5.56,13.24,7.77,15.97,6,17.61"/><path id="Tracé_204835" class="cls-1" d="m13.27,102.48c1.04-2.95.44-8.74,7.04-17.48.15-.2-5.72,16.39-5.72,17.48v4.92"/><path id="Tracé_204836" class="cls-1" d="m15.47,107.4s.44-6.01,6.16-15.84c0,0-6.52,7.16-7.04,10.93"/><path id="Tracé_204837" class="cls-1" d="m12.39,106.85c0-6.58-10.93-19.17-10.12-17.48,7.04,14.75,7.04,10.93,9.24,18.03"/></g></g></g></svg>