<?xml version="1.0" encoding="UTF-8"?><svg id="Calque_2" xmlns="http://www.w3.org/2000/svg" viewBox="0 0 84.1 87.63"><defs><style>.cls-1{fill:#fff;}.cls-2{fill:#e52825;}</style></defs><g id="Calque_1-2"><g><path class="cls-2" d="m42.45,87.63c-.05,0-.11,0-.16,0h0l.02-1.2-.03,1.2c-1.52-.04-2.92-.68-4.23-1.49h0c-1.32-.82-2.58-1.85-3.79-2.83h0c-.77-.62-1.54-1.25-2.22-1.74h0c-.67-.49-1.29-.84-1.58-.93h0c-.19-.06-.66-.14-1.3-.15h0c-.11,0-.22,0-.34,0h0c-.88,0-1.93.07-3.05.15h0c-1.18.08-2.43.17-3.64.17h0c-.18,0-.35,0-.53,0h0c-1.04-.03-1.96-.13-2.78-.34h0c-.82-.21-1.56-.53-2.19-.97h0c-1.27-.91-2.05-2.26-2.66-3.71h0c-.6-1.46-1.02-3.06-1.43-4.6h0c-.25-.96-.51-1.92-.77-2.72h0c-.25-.8-.55-1.44-.73-1.68h0c-.16-.24-.69-.7-1.37-1.16h0c-.68-.47-1.52-.99-2.35-1.5h0c-1.04-.64-2.12-1.29-3.11-2.01h0c-1-.72-1.92-1.5-2.64-2.43h0c-.48-.62-.87-1.31-1.08-2.07H.49c-.17-.59-.24-1.19-.24-1.8H.24c0-1.18.26-2.37.61-3.56h0c.35-1.19.81-2.38,1.24-3.54h0c.35-.93.7-1.86.96-2.67h0c.26-.8.4-1.51.4-1.85h0v-.03h0c0-.31-.15-1.02-.43-1.81h0c-.27-.8-.65-1.73-1.02-2.66h0c-.47-1.16-.96-2.37-1.34-3.58h0c-.38-1.21-.66-2.42-.66-3.62h0c0-.62.08-1.24.27-1.85H.27c.48-1.48,1.52-2.64,2.71-3.65h0c1.2-1.02,2.58-1.91,3.91-2.77h0c.84-.54,1.67-1.08,2.36-1.59h0c.68-.49,1.21-.98,1.38-1.24h0c.19-.25.48-.91.72-1.72h0c.25-.81.49-1.78.73-2.75h0c.38-1.54.77-3.14,1.35-4.6h0c.58-1.45,1.33-2.81,2.58-3.75h0c.87-.64,1.87-.98,2.88-1.17h0c1.01-.19,2.04-.24,3.03-.24h0c.28,0,.56,0,.83.01h0c.8.02,1.62.06,2.39.1h0c.76.04,1.47.08,2.13.1h0c.19,0,.4,0,.62,0h0c.38,0,.77-.01,1.12-.04h0c.35-.03.65-.09.81-.14h0c.29-.09.91-.45,1.57-.96h0c.67-.5,1.43-1.14,2.19-1.78h0c1.22-1.02,2.48-2.09,3.81-2.94h0C38.7.69,40.11.03,41.67,0h0s.04,0,.06,0h0s.08,0,.13,0h0c1.52.04,2.9.68,4.21,1.49h0c1.31.82,2.57,1.84,3.77,2.82h0c.77.63,1.55,1.26,2.23,1.75h0c.68.5,1.3.85,1.6.94h0c.18.06.64.13,1.26.15h0c.11,0,.22,0,.34,0h0c.88,0,1.94-.08,3.07-.16h0c1.2-.09,2.46-.18,3.69-.18h0c.18,0,.35,0,.52,0h0c1.03.03,1.95.13,2.77.34h0c.82.21,1.55.52,2.18.97h.01c1.26.92,2.03,2.27,2.64,3.72h0c.6,1.45,1.02,3.05,1.43,4.58h0c.26.96.51,1.92.78,2.73h0c.26.8.55,1.45.74,1.69h0c.18.26.72.73,1.41,1.21h0c.69.49,1.54,1.02,2.38,1.54h0c1.34.84,2.75,1.7,3.96,2.7h0c1.21,1,2.27,2.13,2.77,3.61h0c.21.65.3,1.32.3,1.99h0c0,1.19-.26,2.39-.62,3.58h0c-.36,1.19-.82,2.39-1.27,3.54h0c-.36.92-.71,1.84-.97,2.64h0c-.26.79-.41,1.49-.4,1.8h0v.02c0,.32.15,1.04.42,1.84h0c.27.81.64,1.75,1.02,2.68h0c.47,1.17.95,2.38,1.33,3.6h0c.37,1.21.65,2.42.65,3.63h0c0,.56-.06,1.13-.21,1.67h0c-.21.77-.58,1.46-1.05,2.08h0c-.47.62-1.03,1.18-1.63,1.7h0c-1.22,1.04-2.64,1.94-4,2.81h0c-.83.53-1.66,1.06-2.34,1.55h0c-.68.48-1.2.96-1.36,1.2h0c-.18.24-.46.89-.7,1.69h0c-.25.8-.49,1.76-.72,2.72h0c-.38,1.55-.78,3.16-1.36,4.63h0c-.58,1.46-1.34,2.83-2.6,3.76h0c-.87.64-1.87.99-2.89,1.19h0c-1.02.2-2.05.25-3.04.25h0c-.28,0-.55,0-.82,0h0c-.81-.02-1.63-.06-2.41-.11h0c-.77-.04-1.48-.08-2.15-.1h0c-.19,0-.39,0-.61,0h0c-.37,0-.76.01-1.1.04h0c-.34.03-.64.08-.79.13h0c-.28.09-.9.45-1.56.96h0c-.67.5-1.43,1.14-2.19,1.79h0c-1.21,1.02-2.48,2.09-3.8,2.94h0c-1.32.84-2.73,1.5-4.29,1.52h-.01Z"/><g><g><path class="cls-1" d="m68.27,44.08c0,.65-.48,1.17-1.07,1.17s-1.07-.52-1.07-1.17.48-1.17,1.07-1.17,1.07.53,1.07,1.17Z"/><path class="cls-1" d="m67.21,46.6c-1.33,0-2.42-1.13-2.42-2.52s1.08-2.52,2.42-2.52,2.42,1.13,2.42,2.52-1.08,2.52-2.42,2.52Zm0-2.7c-.17,0-.29.11-.29.18s.12.18.29.18.28-.11.28-.18-.12-.18-.28-.18Z"/></g><g><path class="cls-1" d="m17.24,44.08c0,.65-.48,1.17-1.07,1.17s-1.07-.52-1.07-1.17.48-1.17,1.07-1.17,1.07.53,1.07,1.17Z"/><path class="cls-1" d="m16.18,46.6c-1.33,0-2.42-1.13-2.42-2.52s1.08-2.52,2.42-2.52,2.42,1.13,2.42,2.52-1.08,2.52-2.42,2.52Zm0-2.7c-.17,0-.29.11-.29.18s.12.18.29.18.29-.11.29-.18-.12-.18-.29-.18Z"/></g></g><g><path class="cls-1" d="m27.18,72.67c-.24,0-.47-.01-.69-.04h0c-.92-.1-1.76-.39-2.45-.84h0c-.69-.45-1.21-1.05-1.56-1.66h0c-.7-1.24-.81-2.49-.82-3.45h0c0-1.05.17-1.81.19-1.89h0c.22-1.01,1.22-1.64,2.23-1.42h0c1.01.22,1.64,1.22,1.42,2.23h0s0,.02,0,.04h0s-.02.12-.04.23h0c-.03.2-.05.5-.05.81h0c0,.44.06.92.19,1.28h0c.13.36.28.56.51.71h0c.16.1.39.21.81.25h0c.11.01.2.02.28.02h0c.23,0,.33-.03.44-.08h0c.1-.06.26-.16.49-.47h0c.47-.61,1.1-2.05,1.71-4.5h0c.54-2.17,2.29-8.34,4.94-15.62h0c2.66-7.28,6.2-15.63,10.41-22.17h0c2.83-4.36,5.91-7.96,9.54-9.86h0c.92-.47,2.04-.12,2.52.8h0c.47.92.12,2.04-.8,2.52h0c-2.64,1.34-5.5,4.48-8.12,8.57h0c-2.63,4.08-5.07,9.08-7.16,14.06h0c-4.19,9.96-7.03,19.92-7.7,22.6h0c-.38,1.5-.76,2.73-1.19,3.75h0c-.43,1.02-.91,1.86-1.52,2.54h0c-.41.45-.88.83-1.4,1.1h0c-.69.36-1.44.5-2.11.5h-.03Z"/><path class="cls-1" d="m40.29,65.57c-1.28-.71-2.34-1.93-2.81-3.46h0c-.31-.99-.46-1.95-.46-2.87h0c0-2.11.8-3.93,1.91-5.33h0c1.11-1.41,2.5-2.45,3.84-3.24h0c2.69-1.59,5.23-2.23,5.33-2.26h0c1-.25,2.02.35,2.27,1.35h0c.26,1-.35,2.02-1.35,2.27h0s-.02,0-.03,0h0s-.08.02-.15.04h0c-.13.04-.33.1-.58.18h0c-.5.17-1.21.43-1.98.78h0c-1.55.7-3.36,1.82-4.41,3.18h0c-.71.91-1.11,1.85-1.11,3.02h0c0,.52.08,1.09.29,1.74h0c.21.64.54,1.01,1.1,1.34h0c.56.32,1.39.53,2.4.53h0c1.59,0,3.56-.53,5.32-1.56h0c1.77-1.03,3.33-2.52,4.26-4.36h0c.63-1.22,1-2.6,1-4.17h0c0-.66-.07-1.37-.21-2.11h0c-.57-2.79-1.66-4.08-2.77-4.85h0c-1.12-.76-2.45-.98-3.52-.98h0c-.88,0-1.55.15-1.63.17h0s-.05.01-.05.01h0c-.99.23-1.99-.38-2.23-1.37h0c-.25-.99.35-2,1.33-2.25h0s.03,0,.06-.01h0s.02,0,.04-.01h0s.1-.03.19-.05h0c.17-.04.42-.12.73-.21h0c.63-.19,1.5-.5,2.47-.92h0c1.94-.84,4.19-2.18,5.55-3.91h0c.91-1.16,1.44-2.41,1.45-3.98h0c0-.18,0-.36-.02-.55h0c-.17-2.01-1.28-3.74-3.29-5.11h0c-2-1.35-4.88-2.21-8.2-2.21h0c-2.75,0-5.8.58-8.9,1.91h0c-4.02,1.73-6.44,4.06-7.91,6.39h0c-1.47,2.33-1.96,4.7-1.96,6.4h0c0,.53.05.99.12,1.34h0c.07.35.17.6.21.67h0c.27.5.8,1.14,1.39,1.58h0c.59.45,1.21.68,1.67.67h0c.33,0,.62-.07,1.02-.35h0c.4-.28.91-.82,1.43-1.78h0c.49-.91,1.62-1.24,2.53-.75h0c.91.49,1.24,1.62.75,2.53h0c-.72,1.33-1.56,2.34-2.55,3.05h0c-.98.7-2.12,1.05-3.18,1.04h0c-1.55,0-2.87-.64-3.91-1.42h0c-1.05-.8-1.86-1.77-2.42-2.77h0c-.29-.53-.47-1.1-.6-1.73h0c-.12-.63-.19-1.32-.19-2.07h0c0-2.4.67-5.42,2.54-8.39h0c1.86-2.97,4.95-5.84,9.6-7.83h0c3.55-1.52,7.1-2.22,10.37-2.22h0c3.96,0,7.54,1,10.29,2.84h0c2.74,1.82,4.66,4.61,4.92,7.9h0c.02.29.03.57.03.86h0c0,2.5-.94,4.65-2.26,6.3h0c-1.27,1.6-2.87,2.79-4.43,3.72h0c.22.12.44.26.66.4h0c1.98,1.32,3.66,3.69,4.34,7.21h0c.19.97.29,1.92.29,2.84h0c0,2.17-.53,4.16-1.41,5.87h0c-.88,1.72-2.11,3.17-3.5,4.34h0c-2.8,2.33-6.24,3.59-9.4,3.61h0c-1.5,0-2.96-.29-4.24-1.02h0Z"/></g></g></g></svg>