<?xml version="1.0" encoding="UTF-8"?><svg id="Calque_2" xmlns="http://www.w3.org/2000/svg" viewBox="0 0 577 600"><defs><style>.cls-1,.cls-2,.cls-3{fill:#fff;}.cls-4{fill:#e52913;}.cls-5{fill:#1d1d1b;}.cls-2{stroke:#1d1d1b;stroke-miterlimit:10;}.cls-3{font-family:Arial-BoldMT, Arial;font-size:43.37px;font-weight:700;isolation:isolate;}</style></defs><g id="logo_MB_2022"><g id="logo4_chic_mama_betty_2022"><g><path class="cls-5" d="M572.53,353.27c-2.57-8.31-5.91-16.6-9.12-24.62-2.57-6.4-5.12-12.81-6.98-18.39-1.88-5.52-2.94-10.38-2.9-12.59v-.12c-.04-2.13,.93-6.9,2.71-12.32,1.78-5.46,4.21-11.74,6.63-18.04,3.07-7.92,6.24-16.08,8.7-24.27,2.44-8.16,4.23-16.37,4.24-24.54,0-4.59-.58-9.18-2.05-13.6-3.46-10.13-10.73-17.9-19.02-24.72-8.33-6.82-17.94-12.78-27.16-18.48-5.82-3.62-11.62-7.23-16.34-10.59-4.74-3.27-8.43-6.53-9.65-8.26-1.32-1.68-3.35-6.12-5.12-11.58-1.82-5.52-3.6-12.11-5.36-18.71-2.78-10.44-5.66-21.37-9.78-31.31-4.1-9.92-9.46-19.14-18.08-25.43l-.06-.04c-4.33-3.06-9.34-5.21-14.96-6.64-5.66-1.43-11.91-2.13-19.01-2.31-1.18-.02-2.38-.04-3.58-.04-8.41,.02-17.09,.66-25.31,1.26-7.77,.56-15.02,1.08-21.04,1.08-.79,0-1.55,0-2.3-.04-4.25-.06-7.35-.58-8.62-.99-2.08-.58-6.36-3.02-11.03-6.41-4.72-3.39-10.02-7.69-15.33-12.01-8.26-6.72-16.88-13.74-25.87-19.33-8.99-5.56-18.47-9.9-28.89-10.21h-1.31c-10.71,.19-20.4,4.69-29.5,10.48-9.12,5.81-17.82,13.15-26.19,20.15-5.18,4.36-10.38,8.73-15.02,12.16-4.58,3.47-8.76,5.95-10.79,6.57-1.03,.37-3.13,.76-5.51,.97-2.38,.22-5.12,.31-7.71,.31-1.47,0-2.92-.04-4.24-.06-4.56-.13-9.42-.39-14.65-.69-5.3-.27-10.87-.58-16.38-.7-1.87-.04-3.75-.09-5.68-.09-6.71,0-13.82,.33-20.76,1.7-6.94,1.34-13.78,3.68-19.74,8.02-8.56,6.41-13.71,15.71-17.67,25.63-3.96,10.04-6.63,21.01-9.26,31.52-1.64,6.64-3.29,13.27-5.04,18.83-1.67,5.52-3.64,10.02-4.94,11.74-1.21,1.78-4.83,5.1-9.49,8.48-4.68,3.43-10.44,7.15-16.2,10.85-9.07,5.89-18.6,12-26.8,18.97-8.17,6.97-15.29,14.86-18.54,24.99-1.32,4.18-1.84,8.43-1.84,12.65,.02,8.27,1.93,16.53,4.54,24.8,2.61,8.27,5.96,16.52,9.22,24.52,2.57,6.33,5.14,12.67,7,18.15,1.87,5.48,2.96,10.28,2.92,12.44v.19c.04,2.3-.95,7.15-2.74,12.63-1.74,5.58-4.16,11.95-6.59,18.36-3,7.9-6.09,16.04-8.52,24.21-2.4,8.16-4.14,16.31-4.16,24.37,0,4.16,.48,8.31,1.66,12.32,1.47,5.25,4.16,9.96,7.43,14.22,4.95,6.34,11.27,11.7,18.11,16.62,6.84,4.96,14.21,9.45,21.36,13.81,5.71,3.52,11.45,7.03,16.12,10.25,4.66,3.18,8.29,6.37,9.4,7.96,1.26,1.61,3.29,6.06,5.03,11.47,1.82,5.5,3.56,12.07,5.3,18.62,2.8,10.52,5.68,21.5,9.8,31.49,4.12,9.92,9.51,19.18,18.23,25.4,4.3,3.08,9.34,5.27,14.99,6.67,5.66,1.45,11.93,2.15,19.08,2.32,1.22,.04,2.44,.04,3.65,.04,8.29,0,16.84-.58,24.98-1.18,7.7-.56,14.92-1.05,20.94-1.05,.81,0,1.58,.02,2.32,.02,4.37,.09,7.6,.6,8.9,1.05,1.97,.54,6.22,2.96,10.83,6.33,4.68,3.35,9.94,7.61,15.23,11.89,8.3,6.72,16.96,13.74,26.02,19.37,9.03,5.54,18.58,9.92,29.04,10.21l.21-8.19-.15,8.19h1.14c10.71-.12,20.38-4.63,29.48-10.4,9.1-5.81,17.75-13.17,26.1-20.15,5.2-4.43,10.4-8.77,15.02-12.24,4.58-3.45,8.78-5.95,10.75-6.53,.99-.38,3.07-.75,5.43-.93,2.32-.23,5.01-.29,7.54-.29,1.43,0,2.86,.02,4.14,.06,4.58,.09,9.49,.38,14.77,.66,5.34,.29,10.98,.58,16.55,.72,1.85,.06,3.71,.06,5.66,.06,6.75,0,13.9-.33,20.86-1.66,6.94-1.36,13.83-3.72,19.8-8.15,8.6-6.39,13.84-15.75,17.82-25.76,3.98-10.08,6.69-21.15,9.32-31.71,1.64-6.57,3.25-13.11,4.97-18.6,1.64-5.46,3.56-9.88,4.8-11.56,1.1-1.66,4.68-4.9,9.32-8.19,4.62-3.37,10.34-7.01,16.05-10.65,9.34-5.95,19.12-12.11,27.47-19.23,4.18-3.59,8-7.4,11.21-11.66,3.19-4.25,5.78-8.99,7.21-14.26,1.02-3.72,1.43-7.59,1.43-11.45,0-8.23-1.88-16.54-4.47-24.85Z"/><path class="cls-1" d="M556.9,358.11c-2.36-7.4-5.51-15.38-8.7-23.36-2.57-6.41-5.22-13.07-7.33-19.31-2.03-6.21-3.61-11.83-3.73-17.45v-.46c.04-5.58,1.57-11.16,3.52-17.36,1.95-6.11,4.47-12.61,6.96-18.93,3.03-7.9,6.05-15.71,8.24-23.03,2.24-7.32,3.56-14.18,3.56-19.84,0-3.18-.41-6-1.2-8.43-1.82-5.5-6.71-11.41-13.88-17.25-7.09-5.83-16.2-11.53-25.4-17.2-5.84-3.64-11.81-7.36-17.15-11.12-5.34-3.8-9.98-7.4-13.38-11.9-3.31-4.55-5.43-10.01-7.5-16.2-2.03-6.21-3.85-13.02-5.63-19.6-2.78-10.46-5.55-20.79-9.12-29.31-3.48-8.56-7.7-14.97-12.47-18.36-2.44-1.7-5.43-3.06-9.49-4.09-4.06-1.03-9.12-1.66-15.32-1.82-1.08-.04-2.12-.04-3.19-.04-7.58,0-15.91,.62-24.12,1.2-7.79,.58-15.32,1.15-22.24,1.15-.92,0-1.78,0-2.7-.04-5.18-.13-9.4-.58-13.22-1.78-5.38-1.74-10.27-4.96-15.62-8.73-5.31-3.8-10.82-8.26-16.12-12.61-8.28-6.7-16.48-13.31-24.19-18.11-7.75-4.88-14.87-7.65-20.59-7.73h-.71c-5.84,0-13.05,2.85-20.88,7.89-7.79,4.96-16.08,11.87-24.4,18.86-5.22,4.38-10.61,8.89-15.79,12.78-5.22,3.84-10.06,7.11-15.37,8.97-3.06,.99-6.13,1.49-9.28,1.78-3.15,.25-6.3,.38-9.2,.38-1.65,0-3.23-.05-4.64-.09-4.93-.12-9.9-.41-15.16-.66-5.31-.33-10.69-.58-15.91-.7-1.74-.04-3.48-.08-5.26-.08-6.13,0-12.26,.33-17.65,1.36-5.34,1.03-9.86,2.77-13.09,5.13-4.64,3.39-8.74,9.88-12.14,18.48-3.35,8.56-5.97,18.93-8.58,29.43-1.65,6.66-3.35,13.52-5.3,19.77-1.99,6.24-4.02,11.78-7.25,16.37-3.32,4.63-7.91,8.27-13.18,12.2-5.26,3.85-11.19,7.69-16.94,11.41-9.12,5.87-18.1,11.7-25.1,17.65-7.04,6-11.81,11.99-13.55,17.45-.7,2.27-1.03,4.84-1.03,7.73,0,5.66,1.41,12.49,3.73,19.88,2.36,7.36,5.55,15.3,8.79,23.27,2.61,6.33,5.26,12.9,7.37,19.06,2.07,6.24,3.69,11.87,3.77,17.61v.25c-.04,5.67-1.54,11.33-3.48,17.61-1.94,6.2-4.47,12.78-6.92,19.18-2.98,7.89-5.93,15.75-8.08,23.07-2.2,7.32-3.52,14.1-3.52,19.72,0,2.9,.33,5.46,1.04,7.77,.79,2.85,2.32,5.74,4.64,8.72,2.28,2.94,5.34,5.95,8.95,8.93,7.21,5.95,16.58,11.74,26.06,17.53,5.76,3.55,11.69,7.15,16.95,10.79,5.26,3.72,9.82,7.19,13.22,11.62,3.31,4.59,5.39,10,7.46,16.16,2.03,6.16,3.81,12.94,5.55,19.51,2.82,10.54,5.6,20.92,9.12,29.47,3.48,8.56,7.79,14.93,12.56,18.27,2.44,1.69,5.42,3.1,9.53,4.14,4.06,1.03,9.15,1.69,15.41,1.82,1.08,.04,2.16,.04,3.28,.04,7.46,0,15.66-.58,23.78-1.16,7.75-.54,15.25-1.07,22.13-1.07,.91,0,1.82,0,2.73,.04,5.31,.12,9.57,.58,13.43,1.78,5.38,1.74,10.23,4.92,15.53,8.68,5.22,3.76,10.69,8.19,15.95,12.44,8.29,6.74,16.57,13.35,24.32,18.19,7.7,4.79,14.75,7.52,20.5,7.69,.09,0,.21,.04,.29,.04h.71c5.76,0,12.92-2.81,20.71-7.81,7.79-4.96,16.04-11.87,24.36-18.9,5.18-4.38,10.6-8.93,15.74-12.82,5.27-3.84,10.07-7.11,15.41-8.96,3.02-1,6.05-1.41,9.16-1.7,3.06-.29,6.17-.37,9.03-.37,1.62,0,3.15,.04,4.56,.08,4.93,.12,9.99,.41,15.25,.66,5.34,.33,10.81,.62,16.03,.75,1.74,.04,3.52,.04,5.26,.04,6.17,0,12.35-.33,17.74-1.37,5.43-1.07,9.9-2.77,13.17-5.21,4.77-3.43,8.9-9.92,12.31-18.6,3.4-8.6,6.01-19.06,8.62-29.64,1.65-6.58,3.31-13.35,5.22-19.47,1.99-6.2,3.93-11.62,7.13-16.21,3.31-4.59,7.83-8.19,13.09-11.99,5.22-3.8,11.15-7.52,16.86-11.16,7-4.47,13.92-8.89,19.93-13.39,6.05-4.46,11.1-9.06,14.42-13.52,2.24-2.98,3.73-5.87,4.47-8.73,.62-2.11,.91-4.5,.91-7.15,0-5.67-1.4-12.57-3.73-20.01Zm-17.19,20.25c-1.24,4.59-3.52,8.77-6.3,12.48-2.82,3.72-6.17,7.03-9.82,10.17-7.3,6.24-15.87,11.66-24.03,16.87-5.02,3.14-9.99,6.32-14.05,9.26-4.06,2.89-7.21,5.74-8.16,7.19-1.08,1.4-2.78,5.33-4.18,10.09-1.49,4.79-2.94,10.54-4.35,16.29-2.32,9.26-4.68,18.94-8.16,27.74-3.48,8.76-8.08,16.95-15.58,22.53-5.22,3.85-11.27,5.91-17.31,7.11-6.14,1.2-12.35,1.49-18.28,1.49-1.7,0-3.31-.04-4.97-.08-4.85-.12-9.78-.37-14.46-.62-4.59-.25-8.9-.5-12.92-.62-1.12,0-2.36-.04-3.64-.04-2.2,0-4.51,.08-6.59,.25-2.07,.21-3.85,.54-4.76,.83-1.7,.53-5.34,2.73-9.36,5.75-4.02,3.02-8.62,6.82-13.13,10.67-7.33,6.12-14.92,12.57-22.87,17.65-7.91,5.04-16.41,8.97-25.77,9.1h-1.04c-9.16-.25-17.52-4.05-25.43-8.93-7.92-4.92-15.46-11.08-22.75-16.95-4.64-3.72-9.23-7.44-13.34-10.38-4.02-2.97-7.75-5.09-9.49-5.58-1.12-.37-3.94-.79-7.79-.87-.66-.04-1.32-.04-2.03-.04-5.26,0-11.56,.45-18.31,.91-7.13,.49-14.59,1.03-21.84,1.03h-3.19c-6.26-.21-11.77-.79-16.7-2.07-4.97-1.24-9.36-3.14-13.13-5.83-7.62-5.46-12.35-13.52-15.95-22.24-3.6-8.73-6.13-18.31-8.57-27.54-1.54-5.74-3.07-11.49-4.64-16.29-1.53-4.76-3.27-8.64-4.39-10.05-1-1.41-4.14-4.13-8.24-6.95-4.06-2.85-9.07-5.91-14.09-8.97-6.26-3.8-12.72-7.77-18.68-12.07-5.97-4.34-11.52-9.01-15.87-14.55-2.86-3.72-5.18-7.86-6.5-12.44-1.04-3.52-1.45-7.15-1.45-10.79,0-7.03,1.54-14.19,3.65-21.29,2.11-7.15,4.85-14.3,7.46-21.21,2.11-5.58,4.22-11.16,5.76-16.04,1.58-4.8,2.45-9.05,2.41-11.08v-.17c.04-1.86-.91-6.07-2.57-10.87-1.61-4.8-3.89-10.34-6.13-15.87-2.82-6.99-5.76-14.22-8.08-21.46-2.24-7.19-3.94-14.47-3.94-21.66,0-3.72,.45-7.44,1.58-11.08,2.9-8.89,9.11-15.8,16.24-21.87,7.21-6.12,15.54-11.45,23.49-16.62,5.01-3.22,10.03-6.49,14.13-9.51,4.1-2.94,7.29-5.83,8.28-7.4,1.16-1.49,2.9-5.46,4.39-10.3,1.49-4.83,2.94-10.62,4.39-16.45,2.28-9.17,4.64-18.81,8.08-27.54,3.44-8.73,7.99-16.87,15.45-22.45,5.22-3.85,11.22-5.87,17.27-7.07,6.09-1.16,12.3-1.45,18.19-1.45,1.65,0,3.31,.04,4.93,.08,4.85,.09,9.74,.38,14.38,.62,4.56,.25,8.82,.46,12.8,.58,1.16,0,2.4,.04,3.73,.04,2.24,0,4.64-.08,6.71-.25,2.11-.21,3.94-.53,4.84-.87,1.74-.54,5.43-2.73,9.41-5.74,4.06-3.02,8.61-6.82,13.17-10.63,7.3-6.16,14.92-12.57,22.87-17.65,7.99-5.04,16.48-8.98,25.85-9.18h1.12c9.11,.29,17.4,4.1,25.27,8.93,7.87,4.92,15.41,11.08,22.66,16.95,4.64,3.76,9.28,7.52,13.42,10.5,4.06,2.98,7.83,5.09,9.61,5.58,1.12,.37,3.81,.83,7.54,.91h2.03c5.26,0,11.6-.46,18.39-.95,7.25-.54,14.79-1.07,22.16-1.07,1.04,0,2.11,0,3.15,.05,6.21,.12,11.68,.78,16.61,2.02,4.93,1.24,9.32,3.14,13.09,5.79l.04,.04c7.54,5.5,12.22,13.56,15.82,22.24,3.61,8.68,6.14,18.27,8.58,27.41,1.54,5.74,3.07,11.53,4.68,16.33,1.53,4.8,3.31,8.68,4.47,10.13,1.08,1.53,4.27,4.38,8.41,7.28,4.18,2.94,9.24,6.07,14.34,9.22,8.03,5,16.49,10.21,23.78,16.16,7.21,6,13.59,12.82,16.61,21.66,1.28,3.89,1.78,7.9,1.78,11.91,0,7.15-1.58,14.31-3.69,21.46-2.15,7.15-4.93,14.3-7.63,21.25-2.11,5.5-4.23,10.99-5.8,15.79-1.58,4.71-2.45,8.89-2.36,10.75v.13c-.04,1.94,.88,6.16,2.53,10.99,1.62,4.92,3.86,10.5,6.1,16.13,2.81,6.99,5.72,14.26,8,21.49,2.23,7.28,3.9,14.56,3.9,21.79,0,3.35-.38,6.74-1.25,10Zm-165.39-21.33c-.29-3.95-3.75-6.95-7.7-6.65-58.62,4.21-112.28,22.13-151.39,38.96-39.07,16.84-63.63,32.62-63.86,32.78-3.33,2.15-4.31,6.62-2.15,9.95,1.39,2.13,3.7,3.28,6.07,3.28,1.34,0,2.69-.37,3.89-1.15,0,0,.08-.05,.25-.17,2.65-1.66,27.36-17.08,65.15-33.03,37.74-15.96,88.51-32.37,143.08-36.28,3.97-.29,6.96-3.72,6.67-7.69Zm-206.58-2.6c2.57-10.31,13.55-48.66,29.73-87.07,8.07-19.18,17.46-38.43,27.63-54.18,2.51-3.89,5.07-7.56,7.67-10.96,4.22,1.41,8.1,3.14,11.26,5.27,7.77,5.25,12.04,11.93,12.68,19.66,.07,.74,.11,1.45,.11,2.13-.04,6.07-2.11,10.89-5.59,15.36-5.22,6.66-13.96,11.82-21.42,15.05-3.71,1.63-7.13,2.81-9.51,3.55-1.22,.37-2.18,.64-2.82,.83-.31,.08-.58,.12-.75,.16-.06,.02-.12,.04-.15,.04h-.02c-.1,.04-.19,.04-.21,.06-3.79,1.02-6.11,4.86-5.18,8.68,.95,3.8,4.8,6.16,8.62,5.27,.04,0,.12-.04,.23-.04,.31-.08,2.9-.66,6.27-.64,4.14-.02,9.28,.83,13.61,3.74,4.29,2.98,8.47,7.94,10.67,18.69,.58,2.85,.85,5.56,.85,8.12,0,6.04-1.43,11.35-3.85,16.07-3.63,7.05-9.61,12.81-16.47,16.76-6.77,3.97-14.39,6.01-20.51,6-3.9,.02-7.11-.79-9.24-2.03-2.18-1.29-3.42-2.71-4.24-5.19-.81-2.5-1.12-4.71-1.12-6.7,.05-4.51,1.58-8.13,4.29-11.64,4.08-5.21,11.04-9.51,17.04-12.22,2.98-1.36,5.71-2.38,7.67-3.02,.95-.33,1.72-.58,2.23-.7,.27-.09,.46-.15,.56-.17,.08-.02,.1-.04,.14-.04,3.84-.99,6.2-4.88,5.18-8.74-.95-3.85-4.89-6.18-8.74-5.19-.39,.12-10.21,2.56-20.57,8.7-5.2,3.06-10.54,7.09-14.83,12.5-4.29,5.36-7.42,12.36-7.37,20.51,0,3.54,.58,7.23,1.76,11.04,1.85,5.89,5.93,10.58,10.86,13.35,4.93,2.77,10.59,3.91,16.38,3.91,12.18-.06,25.48-4.9,36.29-13.87,5.39-4.5,10.11-10.09,13.51-16.7,3.42-6.62,5.45-14.31,5.45-22.64,0-3.53-.38-7.19-1.1-10.93-2.67-13.6-9.11-22.7-16.78-27.78-.83-.58-1.7-1.1-2.54-1.58,6.02-3.53,12.18-8.14,17.08-14.3,5.1-6.37,8.74-14.63,8.7-24.29,0-1.09-.04-2.17-.12-3.29-1.04-12.69-8.46-23.4-19-30.43-2.82-1.88-5.87-3.51-9.1-4.92,4.56-4.5,9.1-8.23,13.49-10.44,3.52-1.84,4.89-6.18,3.07-9.74-1.82-3.49-6.17-4.88-9.7-3.06-8.1,4.26-15.43,10.83-22.33,18.71-4.87-.89-9.88-1.51-15.14-1.51-12.66,0-26.33,2.65-40.04,8.52-17.98,7.67-29.87,18.73-37.08,30.18-7.19,11.45-9.76,23.07-9.78,32.31,0,2.88,.25,5.54,.72,7.98,.52,2.42,1.19,4.61,2.32,6.68,2.15,3.86,5.28,7.61,9.32,10.67,4.01,3.02,9.13,5.46,15.1,5.5,4.1,.02,8.47-1.32,12.29-4.01,3.83-2.73,7.08-6.62,9.85-11.74,1.89-3.48,.58-7.86-2.91-9.76-3.5-1.9-7.88-.58-9.78,2.9-1.97,3.7-3.94,5.77-5.47,6.86-1.58,1.07-2.74,1.32-3.98,1.36-1.76,0-4.14-.87-6.44-2.6-2.25-1.66-4.31-4.14-5.33-6.06-.17-.29-.58-1.24-.8-2.61-.29-1.34-.48-3.14-.48-5.17,0-6.57,1.91-15.69,7.58-24.66,5.67-8.97,15.02-17.94,30.53-24.6,11.97-5.12,23.74-7.36,34.37-7.36,1.7,0,3.27,.21,4.89,.31-1.43,2.03-2.88,3.95-4.27,6.1-16.26,25.22-29.91,57.34-40.19,85.37-10.23,28.05-16.96,51.78-19.06,60.15-2.34,9.47-4.78,15.01-6.59,17.36-.89,1.2-1.48,1.57-1.88,1.78-.42,.21-.79,.33-1.68,.33-.33,0-.68,0-1.1-.04-1.64-.21-2.53-.58-3.13-.99-.87-.58-1.47-1.32-1.97-2.73-.5-1.37-.72-3.23-.71-4.93,0-1.23,.11-2.36,.21-3.14,.04-.39,.1-.69,.12-.87,.02-.09,.04-.12,.04-.17,.88-3.88-1.59-7.71-5.49-8.58-3.88-.85-7.73,1.57-8.58,5.46-.06,.35-.72,3.25-.75,7.29,.05,3.7,.48,8.5,3.19,13.28,1.37,2.37,3.35,4.67,6.03,6.41,2.67,1.76,5.88,2.85,9.43,3.25,.89,.1,1.78,.14,2.69,.14h.11c2.59,0,5.49-.54,8.14-1.9,2.03-1.03,3.85-2.48,5.43-4.24,2.36-2.62,4.18-5.84,5.84-9.78,1.68-3.92,3.17-8.64,4.62-14.45Zm306.38-21.99c-6.61-.97-12.95-1.43-19.06-1.43-3.32,0-6.55,.15-9.7,.39,11.31-45.14,17.24-90.64,17.28-90.81,.48-3.66-1.89-7.07-5.45-7.94-3.62-.87-7.25,1.09-8.51,4.59,0,0-.06,.22-.22,.72-1.35,3.68-7.79,20.79-16.16,36.65-4.14,7.92-8.82,15.51-13.28,20.74-2.22,2.61-4.35,4.59-6.11,5.75-1.31,.87-2.3,1.24-2.96,1.39-.05-.19-.09-.39-.15-.64-.19-.83-.31-2.07-.31-3.56,0-3.88,.83-9.43,2.18-15.34,.83-3.68,1.86-7.52,2.96-11.28,1.88-4.84,3.52-9.51,4.89-13.73,1.88-5.87,3.27-10.77,4.08-13.71,.08-.31,.18-.6,.27-.89,.15-.46,.25-.89,.37-1.36,.05-.21,.13-.46,.19-.79,.04-.32,.1-.7,.12-1.46-.05-.48,.02-1.06-.44-2.48-1.06-3-3.98-4.94-7.15-4.78-3.17,.17-5.88,2.38-6.65,5.46,0,0-.06,.21-.15,.64-.12,.4-.25,.94-.41,1.6-.12,.31-.25,.66-.35,1.03-1.7,5.05-5.24,14.89-8.35,25.53-.04,.1-.06,.18-.11,.29-.58,1.55-1.24,3.08-1.88,4.61-3.04,7.11-6.61,13.89-10.15,18.44-1.74,2.27-3.46,3.97-4.87,4.88-1.41,.99-2.32,1.18-2.94,1.18-.16,0-.35-.03-.58-.06-.68-.16-1.02-.33-1.33-.58-.44-.37-1.1-1.18-1.65-2.97-.56-1.78-.91-4.47-.91-7.69-.02-7.73,2.01-18.65,5.18-30.3,3.85-14.14,9.34-29.31,14.5-42.48,14.35,.37,29.77,1.43,46.81,4.07,3.91,.62,7.6-2.07,8.2-6.01,.62-3.91-2.07-7.59-5.99-8.21-15.6-2.39-29.79-3.47-43.29-4.01,2.11-5.04,4.08-9.63,5.55-12.94,.98-2.19,1.76-3.95,2.32-5.15,.56-1.18,.83-1.8,.83-1.8,1.72-3.59,.12-7.89-3.48-9.57-3.63-1.68-7.89-.13-9.59,3.47-.02,.08-4.91,10.5-11.02,25.43-6.07,.02-11.73,.27-17.28,.56,1.55-3.6,2.98-6.88,4.1-9.41,.97-2.21,1.76-3.92,2.32-5.1,.52-1.16,.79-1.78,.79-1.78,1.7-3.6,.17-7.86-3.44-9.55-3.58-1.71-7.87-.16-9.57,3.43-.04,.06-4.6,9.72-10.42,23.71-40.93,4.32-64.01,14.91-64.61,15.2-3.58,1.7-5.11,5.99-3.4,9.59,1.24,2.56,3.81,4.09,6.5,4.09,1.04,0,2.09-.22,3.11-.7,.52-.25,19.01-8.72,52.36-13.1-.35,.95-.72,1.88-1.1,2.85-4.35,11.58-8.76,24.29-12.1,36.55-3.06,11.39-5.09,22.16-5.42,31.77-.62,.48-1.43,.58-1.88,1.26-5.64,8.49-11.6,14.68-16.95,18.58-5.33,3.95-10.02,5.43-12.72,5.38-1.06,0-1.82-.19-2.38-.44-.85-.39-1.43-.86-2.15-2.19-.68-1.34-1.28-3.62-1.28-6.95v-.86c.06-2.31,.33-4.77,.71-7.24h.72c4.01,0,8.39-.42,12.78-1.78,4.41-1.32,8.84-3.62,12.61-7.24,2.9-2.75,4.95-6.08,6.34-9.65,1.39-3.53,2.18-7.34,2.18-11.22,0-2.73-.41-5.54-1.35-8.23-.95-2.73-2.48-5.37-4.72-7.56-1.37-1.3-2.95-2.44-4.72-3.22-1.76-.77-3.73-1.16-5.59-1.16-2.88,0-5.49,.87-7.77,2.09-3.96,2.15-7.07,5.35-10.01,9.14-4.31,5.73-7.95,12.94-10.72,20.85-.27,.7-.52,1.41-.73,2.13-.89-.23-1.62-.43-2.15-.58-.39-.1-.66-.18-.85-.25-.11-.04-.15-.06-.19-.06-3.75-1.33-7.87,.66-9.2,4.42-1.28,3.72,.69,7.83,4.46,9.14,.17,.06,1.88,.66,4.61,1.32-.45,2.89-.72,5.79-.83,8.68v1.28c0,6.66,1.55,12.57,5.24,17.12,1.81,2.24,4.17,4.01,6.77,5.17,2.61,1.16,5.43,1.67,8.23,1.67,7.13-.06,14.21-3.05,21.25-8.16,4.5-3.31,8.93-7.9,13.3-13.07,1.06,2.13,2.4,4.2,4.23,5.89,2.05,1.84,4.58,3.21,7.27,3.95,1.64,.45,3.27,.66,4.89,.66h.04c3.02,0,5.84-.78,8.24-2.04,4.24-2.19,7.27-5.52,9.72-8.95,.27-.37,.43-.79,.68-1.16,1.02,1.57,1.97,3.22,3.48,4.46,2.15,1.76,4.76,2.98,7.52,3.55,1.2,.25,2.34,.33,3.52,.33,4.5,0,8.52-1.74,11.7-4.09,.96-.7,1.86-1.45,2.73-2.27,.36,2.02,.98,3.99,2.06,5.97,1.03,1.88,2.63,3.72,4.76,5,2.14,1.28,4.64,1.84,6.98,1.84,4.7,0,8.76-1.9,12.25-4.34,6.07-4.36,11.1-10.81,15.87-18.11,.71-1.12,1.38-2.24,2.09-3.38-2.65,13.44-5.86,28.18-9.63,42.52-.02,.06-.02,.1-.04,.17-15.58,3.55-28.67,10.29-38.74,18.52-7.58,6.21-13.5,13.23-17.6,20.47-4.06,7.28-6.38,14.8-6.38,22.16-.04,4.71,1.02,9.38,3.24,13.54,2.21,4.2,5.7,7.77,10.07,10.28,3.67,2.11,7.68,3.31,11.7,3.31h.05c3.85,0,7.52-1.07,10.79-2.85,6.09-3.31,10.89-8.73,15.26-15.34,7.61-11.6,13.86-27.35,19.35-44.69,1.31-4.22,2.59-8.52,3.84-12.88,4.33-.6,8.86-.91,13.63-.91,5.36,0,11.02,.39,16.94,1.29,3.94,.6,7.62-2.13,8.2-6.06,.58-3.93-2.15-7.59-6.09-8.19Zm-174.71-62.57c2.26-4.32,4.81-7.92,7-10.07,1.1-1.07,2.07-1.82,2.78-2.14,.33-.19,.58-.29,.72-.33,.06-.02,.09-.02,.11-.02,.04,.02,.14,.1,.31,.25,.44,.43,.85,1.07,1.18,2.01,.34,.95,.54,2.17,.54,3.51,0,1.92-.41,4.09-1.14,6-.76,1.9-1.82,3.51-2.88,4.48-1.93,1.84-4.23,3.06-6.88,3.89-1.72,.52-3.58,.85-5.53,1.02,1.14-3.06,2.42-5.95,3.79-8.58Zm68.5-19.12c-2.22,8.19-3.67,15.87-4.6,23.2-.49,.7-.91,1.49-1.14,2.37v.02c-.13,.56-1.95,7.48-5.07,13.68-1.58,3.06-3.44,5.95-5.22,7.69-.88,.89-1.68,1.45-2.35,1.78-.66,.33-1.12,.41-1.63,.41-.29,0-.63-.04-1.04-.14-.69-.21-1.04-.39-1.43-.77-.54-.49-1.24-1.49-1.82-3.39-.56-1.9-.91-4.59-.91-7.85-.02-7.86,1.99-18.77,5.16-30.35,4.08-15.05,10-31.17,15.41-44.75,5.55-.43,11.48-.64,17.63-.76-.27,.7-.54,1.38-.81,2.1-4.42,11.66-8.83,24.48-12.18,36.76Zm43.27,136.51c-3.5,6.97-7.2,12.49-10.62,15.87-1.75,1.72-3.32,2.9-4.71,3.6-1.41,.68-2.52,.95-3.66,.95-1.25,0-2.64-.29-4.56-1.4-2.18-1.24-3.56-2.73-4.54-4.57-.97-1.8-1.53-4.05-1.53-6.76,0-4.22,1.41-9.55,4.56-15.09,4.66-8.33,13.03-17.01,24.65-23.53,4.39-2.48,9.28-4.65,14.6-6.38-4.28,14.14-9.05,27.2-14.19,37.31Z"/><path class="cls-4" d="M297.06,432.7l-.81,4.08,4.32-2.45,2.5-1.42c1.18,4.87,3.2,15.67-.16,22.95l-1.65,3.58,4.57-1.43c27.24-8.5,12.49-40.6,11.86-41.96l-.85-1.8-2.22,.85-5.44,2.09c3.1-19.06-16.33-30-16.53-30.12l-5.06-2.78,1.63,4.62c.07,.22,1.76,6.31-11.51,13.91-12.2,6.97-11.36,18.66-10.15,24.12l-4.91-1.13-2.28-.53-.51,1.79c-5.48,18.79,4.9,26.79,14.57,30.2l4.84,1.7-1.83-3.84c-1.68-3.52-2.09-8.13-1.27-13.71l2.09,.7,3.9,1.33-.84-3.22c-.03-.14-3.27-13.13,4.26-19.47,4.17-3.51,6.1-6.81,6.96-9.38,2.94,4.05,6.53,11.34,4.55,21.31Z"/><g><path class="cls-2" d="M194.98,134.12v26.92h-13.41v-57.62l28.36,26.92,27.91-26.92v57.62h-13.41v-26.92l-14.67,13.59-14.76-13.59Z"/><path class="cls-2" d="M279.97,155.64h-20.35l-2.25,5.4h-14.31l26.92-57.62,26.92,57.62h-14.49l-2.43-5.4Zm-10.44-23.5l-5.04,11.97h10.35l-5.31-11.97Z"/><path class="cls-2" d="M315.52,134.12v26.92h-13.41v-57.62l28.36,26.92,27.91-26.92v57.62h-13.41v-26.92l-14.67,13.59-14.76-13.59Z"/><path class="cls-2" d="M400.51,155.64h-20.35l-2.25,5.4h-14.31l26.92-57.62,26.92,57.62h-14.5l-2.43-5.4Zm-10.44-23.5l-5.04,11.97h10.35l-5.31-11.97Z"/></g><text class="cls-3" transform="translate(128.16 499.67) scale(.62 1)"><tspan x="0" y="0">Burgerhouse-Steakhouse</tspan></text></g></g></g></svg>