<?xml version="1.0" encoding="UTF-8"?><svg id="Calque_2" xmlns="http://www.w3.org/2000/svg" viewBox="0 0 577 600"><defs><style>.cls-1,.cls-2{fill:#fff;}.cls-3{fill:#e52913;}.cls-4{fill:#1d1d1b;}.cls-2{stroke:#1d1d1b;stroke-miterlimit:10;stroke-width:3px;}</style></defs><g id="logo_MB_2022"><g id="logo4_chic_mama_betty_2022"><g><path class="cls-4" d="M291.25,600c-.37,0-.73,0-1.1,0h0l.15-8.2-.2,8.2c-10.46-.3-20.01-4.65-29.05-10.22h0c-9.04-5.6-17.7-12.65-26.02-19.37h0c-5.27-4.27-10.54-8.52-15.22-11.88h0c-4.62-3.37-8.86-5.78-10.83-6.34h0c-1.32-.43-4.54-.94-8.9-1.03h0c-.75-.02-1.53-.03-2.33-.03h0c-6.03,0-13.24,.51-20.96,1.06h0c-8.13,.58-16.66,1.19-24.96,1.19h0c-1.22,0-2.44-.01-3.65-.04h0c-7.14-.17-13.43-.89-19.09-2.32h0c-5.65-1.42-10.69-3.61-14.99-6.67h0c-8.72-6.23-14.09-15.47-18.23-25.41h0c-4.12-9.98-7-20.97-9.8-31.49h0c-1.74-6.57-3.49-13.13-5.29-18.6h0c-1.75-5.45-3.77-9.89-5.04-11.49h0c-1.13-1.61-4.74-4.77-9.4-7.96h0c-4.67-3.24-10.4-6.75-16.13-10.25h0c-7.13-4.36-14.51-8.87-21.35-13.79h0c-6.83-4.93-13.16-10.28-18.11-16.65h0c-3.28-4.23-5.95-8.97-7.43-14.19h0c-1.19-4.03-1.67-8.18-1.67-12.33h0c.01-8.07,1.76-16.22,4.16-24.38h0c2.41-8.16,5.52-16.33,8.52-24.22h0c2.42-6.38,4.83-12.76,6.59-18.31h0c1.78-5.51,2.78-10.36,2.73-12.66h0v-.19h0c.04-2.15-1.03-6.97-2.92-12.42h0c-1.87-5.5-4.44-11.84-7.01-18.18h0c-3.24-7.97-6.61-16.23-9.22-24.49h0C1.92,239.05,.02,230.77,0,222.51H0c0-4.23,.52-8.47,1.82-12.64h0c3.29-10.13,10.41-18.04,18.56-25.01h0c8.2-6.97,17.72-13.08,26.82-18.97h0c5.75-3.71,11.48-7.42,16.17-10.85h0c4.67-3.37,8.3-6.69,9.49-8.46h0c1.31-1.72,3.27-6.25,4.96-11.77h0c1.73-5.55,3.39-12.19,5.04-18.82h0c2.62-10.51,5.32-21.48,9.25-31.49h0c3.95-9.96,9.12-19.25,17.67-25.66h0c5.97-4.36,12.83-6.69,19.75-8.04h0c6.94-1.33,14.02-1.67,20.77-1.67h0c1.92,0,3.81,.03,5.67,.07h0c5.51,.13,11.08,.43,16.39,.72h0c5.23,.28,10.09,.55,14.64,.66h0c1.33,.03,2.77,.06,4.25,.06h0c2.59,0,5.31-.08,7.71-.3h0c2.39-.21,4.48-.61,5.52-.97h0c2.01-.62,6.22-3.11,10.78-6.56h0c4.63-3.45,9.83-7.81,15.03-12.17h0c8.36-7,17.04-14.34,26.16-20.16h0C265.54,4.7,275.23,.2,285.93,0h0c.11,0,.24,0,.42,0h0c.25,0,.55,0,.88,.01h0c10.41,.3,19.91,4.65,28.9,10.2h0c8.99,5.6,17.6,12.62,25.88,19.33h0c5.3,4.31,10.62,8.61,15.33,12h0c4.66,3.4,8.94,5.83,11,6.42h0c1.26,.42,4.38,.92,8.63,1.01h0c.74,.02,1.51,.03,2.3,.03h0c6.03,0,13.28-.52,21.05-1.09h0c8.23-.59,16.88-1.24,25.3-1.24h0c1.2,0,2.4,.01,3.6,.04h0c7.1,.17,13.35,.89,18.99,2.31h0c5.63,1.42,10.65,3.59,14.96,6.64h0l.07,.05c8.62,6.28,13.96,15.5,18.09,25.4h0c4.1,9.95,6.99,20.87,9.79,31.34h0c1.76,6.59,3.52,13.18,5.34,18.67h0c1.77,5.47,3.8,9.93,5.11,11.58h0c1.23,1.75,4.91,5,9.65,8.29h0c4.74,3.34,10.54,6.95,16.35,10.56h0c9.21,5.73,18.84,11.67,27.17,18.48h0c8.28,6.83,15.54,14.6,19.02,24.73h0c1.46,4.44,2.04,9.02,2.04,13.61h0c0,8.15-1.8,16.35-4.25,24.54h0c-2.46,8.18-5.63,16.35-8.69,24.25h0c-2.44,6.29-4.87,12.59-6.63,18.06h0c-1.79,5.41-2.79,10.18-2.73,12.32h0v.05h0v.06c-.04,2.22,1.03,7.09,2.91,12.61h0c1.86,5.57,4.42,11.98,6.98,18.38h0c3.21,8.02,6.54,16.32,9.13,24.62h0c2.57,8.3,4.46,16.6,4.47,24.86h0c0,3.86-.43,7.71-1.45,11.44h0c-1.42,5.28-4,10.01-7.19,14.26h0c-3.21,4.26-7.04,8.08-11.21,11.65h0c-8.36,7.11-18.12,13.29-27.47,19.25h0c-5.71,3.63-11.42,7.27-16.06,10.63h0c-4.64,3.29-8.21,6.55-9.31,8.18h0c-1.24,1.65-3.17,6.11-4.82,11.56h0c-1.71,5.48-3.34,12.04-4.96,18.59h0c-2.63,10.58-5.34,21.63-9.31,31.71h0c-3.99,10.03-9.22,19.38-17.82,25.76h0c-5.97,4.41-12.86,6.77-19.81,8.12h0c-6.97,1.34-14.09,1.68-20.88,1.68h0c-1.92,0-3.8-.03-5.65-.07h0c-5.56-.14-11.19-.44-16.55-.74h0c-5.28-.28-10.18-.55-14.75-.66h0c-1.3-.03-2.71-.05-4.16-.05h0c-2.53,0-5.19,.07-7.55,.29h0c-2.35,.19-4.42,.57-5.42,.92h0c-1.95,.59-6.16,3.09-10.72,6.55h0c-4.62,3.46-9.84,7.84-15.04,12.22h0c-8.33,7-17,14.34-26.09,20.16h0c-9.09,5.76-18.76,10.26-29.45,10.41h-.07Z"/><path class="cls-1" d="M291.3,577.65c-.34,0-.68,0-1.01,0h0l.14-7.6-.19,7.6c-9.69-.28-18.53-4.31-26.9-9.46h0c-8.37-5.19-16.39-11.71-24.09-17.94h0c-4.88-3.95-9.76-7.89-14.09-11h0c-4.28-3.12-8.21-5.35-10.03-5.88h0c-1.22-.4-4.2-.87-8.24-.95h0c-.7-.02-1.42-.03-2.16-.03h0c-5.58,0-12.26,.47-19.41,.98h0c-7.53,.54-15.42,1.1-23.11,1.1h0c-1.13,0-2.26-.01-3.38-.04h0c-6.61-.16-12.44-.82-17.68-2.15h0c-5.23-1.32-9.9-3.34-13.88-6.18h0c-8.08-5.77-13.05-14.33-16.88-23.53h0c-3.82-9.24-6.48-19.42-9.07-29.16h0c-1.61-6.08-3.23-12.16-4.9-17.22h0c-1.62-5.05-3.49-9.16-4.67-10.64h0c-1.04-1.49-4.39-4.41-8.7-7.37h0c-4.33-3-9.63-6.25-14.93-9.49h0c-6.6-4.04-13.44-8.21-19.77-12.77h0c-6.33-4.57-12.19-9.52-16.77-15.42h0c-3.04-3.92-5.51-8.31-6.88-13.14h0c-1.1-3.73-1.55-7.57-1.55-11.42h0c.01-7.47,1.63-15.02,3.86-22.57h0c2.23-7.55,5.12-15.12,7.89-22.43h0c2.24-5.91,4.48-11.81,6.1-16.96h0c1.64-5.1,2.57-9.6,2.53-11.73h0v-.17h0c.04-1.99-.96-6.45-2.71-11.5h0c-1.73-5.1-4.11-10.97-6.49-16.83h0c-3-7.38-6.12-15.03-8.54-22.68h0c-2.41-7.66-4.17-15.32-4.18-22.97h0c0-3.92,.48-7.84,1.68-11.71h0c3.04-9.38,9.64-16.71,17.19-23.16h0c7.6-6.45,16.41-12.11,24.83-17.56h0c5.32-3.43,10.63-6.88,14.97-10.05h0c4.33-3.12,7.69-6.2,8.79-7.84h0c1.21-1.59,3.03-5.78,4.59-10.9h0c1.6-5.14,3.14-11.29,4.67-17.43h0c2.43-9.73,4.92-19.89,8.56-29.16h0c3.66-9.22,8.44-17.82,16.36-23.76h0c5.52-4.04,11.88-6.2,18.28-7.44h0c6.42-1.23,12.98-1.55,19.23-1.55h0c1.77,0,3.53,.02,5.25,.07h0c5.1,.12,10.26,.4,15.18,.67h0c4.85,.26,9.34,.51,13.56,.61h0c1.23,.03,2.56,.06,3.93,.06h0c2.4,0,4.92-.07,7.13-.28h0c2.21-.19,4.15-.56,5.12-.9h0c1.86-.57,5.76-2.88,9.99-6.08h0c4.28-3.19,9.1-7.23,13.92-11.27h0c7.74-6.49,15.78-13.27,24.22-18.66h0c8.43-5.34,17.41-9.52,27.32-9.7h0c.1,0,.23,0,.39,0h0c.24,0,.51,0,.82,.01h0c9.64,.28,18.43,4.31,26.76,9.44h0c8.33,5.18,16.3,11.69,23.96,17.9h0c4.91,3.99,9.83,7.97,14.2,11.11h0c4.31,3.15,8.28,5.4,10.19,5.94h0c1.16,.39,4.05,.85,7.99,.93h0c.68,.02,1.4,.02,2.13,.02h0c5.58,0,12.29-.48,19.49-1.01h0c7.62-.55,15.63-1.15,23.43-1.15h0c1.11,0,2.23,.01,3.33,.04h0c6.57,.16,12.37,.82,17.58,2.14h0c5.21,1.32,9.86,3.33,13.85,6.15h0l.07,.05c7.98,5.81,12.93,14.35,16.75,23.52h0c3.8,9.22,6.47,19.33,9.06,29.02h0c1.63,6.1,3.26,12.2,4.95,17.29h0c1.63,5.06,3.52,9.19,4.73,10.72h0c1.14,1.62,4.55,4.63,8.94,7.68h0c4.39,3.1,9.76,6.44,15.14,9.78h0c8.53,5.31,17.44,10.8,25.16,17.12h0c7.67,6.32,14.39,13.52,17.61,22.9h0c1.35,4.11,1.89,8.35,1.89,12.6h0c0,7.55-1.66,15.14-3.93,22.72h0c-2.28,7.58-5.21,15.14-8.04,22.46h0c-2.26,5.83-4.51,11.66-6.14,16.72h0c-1.65,5.01-2.58,9.43-2.53,11.4h0v.04h0v.06c-.03,2.06,.95,6.56,2.7,11.68h0c1.72,5.16,4.09,11.09,6.46,17.02h0c2.97,7.43,6.06,15.11,8.45,22.8h0c2.38,7.68,4.13,15.37,4.14,23.02h0c0,3.57-.4,7.14-1.34,10.59h0c-1.31,4.88-3.7,9.27-6.66,13.21h0c-2.97,3.94-6.52,7.48-10.38,10.79h0c-7.74,6.59-16.78,12.31-25.44,17.82h0c-5.29,3.36-10.58,6.74-14.88,9.84h0c-4.29,3.05-7.61,6.06-8.62,7.58h0c-1.15,1.53-2.94,5.66-4.47,10.71h0c-1.58,5.08-3.09,11.14-4.59,17.22h0c-2.44,9.8-4.95,20.03-8.62,29.36h0c-3.69,9.29-8.54,17.94-16.5,23.86h0c-5.53,4.09-11.91,6.27-18.35,7.52h0c-6.45,1.24-13.05,1.56-19.33,1.56h0c-1.78,0-3.52-.02-5.23-.06h0c-5.15-.13-10.36-.41-15.33-.69h0c-4.89-.26-9.43-.51-13.66-.61h0c-1.2-.03-2.51-.05-3.85-.05h0c-2.34,0-4.81,.07-6.99,.27h0c-2.17,.18-4.09,.53-5.02,.85h0c-1.8,.55-5.7,2.86-9.93,6.07h0c-4.28,3.2-9.11,7.26-13.93,11.32h0c-7.72,6.48-15.74,13.27-24.16,18.67h0c-8.42,5.34-17.38,9.5-27.27,9.64h-.07Z"/><path class="cls-4" d="M290.44,558.41c-.32,0-.63,0-.94,0h0l.13-7.07-.18,7.07c-9.02-.26-17.26-4.01-25.05-8.81h0c-7.8-4.83-15.26-10.91-22.43-16.7h0c-4.54-3.68-9.09-7.35-13.12-10.24h0c-3.98-2.91-7.64-4.98-9.34-5.47h0c-1.14-.37-3.91-.81-7.67-.89h0c-.65-.02-1.32-.03-2.01-.03h0c-5.2,0-11.41,.44-18.07,.91h0c-7.01,.5-14.36,1.03-21.52,1.03h0c-1.05,0-2.1-.01-3.14-.03h0c-6.16-.15-11.58-.77-16.46-2h0c-4.87-1.23-9.21-3.11-12.93-5.75h0c-7.52-5.37-12.15-13.34-15.72-21.91h0c-3.55-8.61-6.03-18.08-8.45-27.15h0c-1.5-5.66-3.01-11.32-4.56-16.04h0c-1.5-4.7-3.25-8.53-4.34-9.9h0c-.97-1.39-4.09-4.11-8.1-6.86h0c-4.03-2.8-8.96-5.82-13.9-8.84h0c-6.15-3.76-12.51-7.64-18.41-11.89h0c-5.89-4.25-11.35-8.87-15.61-14.35h0c-2.83-3.65-5.13-7.74-6.41-12.23h0c-1.03-3.48-1.44-7.05-1.44-10.63h0c.01-6.96,1.52-13.98,3.59-21.02h0c2.08-7.03,4.76-14.08,7.35-20.88h0c2.09-5.5,4.17-11,5.68-15.79h0c1.53-4.75,2.39-8.94,2.35-10.92h0v-.16h0c.03-1.86-.89-6.01-2.52-10.71h0c-1.61-4.74-3.82-10.21-6.05-15.67h0c-2.79-6.87-5.7-13.99-7.95-21.12h0c-2.24-7.13-3.88-14.27-3.9-21.39h0c0-3.65,.45-7.3,1.57-10.9h0c2.83-8.73,8.97-15.56,16-21.56h0c7.07-6.01,15.28-11.28,23.12-16.35h0c4.95-3.2,9.9-6.4,13.94-9.36h0c4.03-2.91,7.16-5.77,8.18-7.3h0c1.13-1.48,2.82-5.38,4.28-10.15h0c1.49-4.79,2.93-10.51,4.35-16.23h0c2.26-9.06,4.58-18.52,7.97-27.15h0c3.41-8.59,7.86-16.6,15.23-22.12h0c5.14-3.76,11.06-5.77,17.02-6.93h0c5.98-1.15,12.09-1.44,17.91-1.44h0c1.65,0,3.29,.02,4.88,.06h0c4.75,.12,9.55,.37,14.13,.62h0c4.51,.24,8.7,.47,12.62,.56h0c1.15,.03,2.39,.05,3.66,.05h0c2.23,0,4.58-.07,6.64-.26h0c2.06-.18,3.86-.52,4.76-.84h0c1.73-.53,5.36-2.68,9.3-5.66h0c3.99-2.97,8.48-6.73,12.96-10.49h0c7.2-6.04,14.69-12.36,22.55-17.38h0c7.85-4.98,16.21-8.86,25.44-9.03h0c.09,0,.21,0,.36,0h0c.22,0,.47,0,.76,.01h0c8.98,.26,17.16,4.01,24.91,8.79h0c7.75,4.83,15.18,10.88,22.31,16.67h0c4.57,3.71,9.15,7.42,13.22,10.34h0c4.01,2.93,7.71,5.03,9.49,5.53h0c1.08,.37,3.77,.8,7.44,.87h0c.64,.01,1.3,.02,1.98,.02h0c5.2,0,11.45-.45,18.15-.94h0c7.1-.51,14.55-1.07,21.82-1.07h0c1.04,0,2.07,.01,3.1,.04h0c6.12,.15,11.51,.76,16.37,1.99h0c4.85,1.22,9.18,3.1,12.9,5.73h0l.06,.04c7.43,5.41,12.04,13.36,15.6,21.9h0c3.54,8.58,6.02,18,8.44,27.02h0c1.51,5.68,3.04,11.36,4.6,16.1h0c1.52,4.72,3.28,8.56,4.4,9.98h0c1.06,1.51,4.24,4.31,8.32,7.15h0c4.09,2.88,9.09,6,14.1,9.1h0c7.94,4.94,16.24,10.06,23.42,15.94h0c7.14,5.89,13.4,12.59,16.4,21.32h0c1.26,3.82,1.76,7.78,1.76,11.73h0c0,7.03-1.55,14.1-3.66,21.15h0c-2.12,7.05-4.86,14.1-7.49,20.91h0c-2.1,5.42-4.2,10.86-5.72,15.57h0c-1.54,4.66-2.4,8.78-2.36,10.62h0v.04h0v.05c-.03,1.91,.89,6.11,2.51,10.87h0c1.6,4.8,3.81,10.33,6.02,15.85h0c2.76,6.92,5.64,14.07,7.87,21.23h0c2.22,7.15,3.84,14.31,3.85,21.43h0c0,3.33-.37,6.65-1.25,9.86h0c-1.22,4.55-3.45,8.63-6.2,12.3h0c-2.76,3.67-6.07,6.96-9.66,10.04h0c-7.2,6.13-15.63,11.46-23.69,16.6h0c-4.92,3.13-9.85,6.27-13.85,9.17h0c-4,2.84-7.08,5.64-8.02,7.06h0c-1.07,1.42-2.74,5.27-4.16,9.97h0c-1.47,4.73-2.88,10.38-4.28,16.03h0c-2.27,9.13-4.61,18.65-8.02,27.34h0c-3.44,8.65-7.95,16.71-15.36,22.21h0c-5.15,3.8-11.09,5.83-17.08,7h0c-6.01,1.16-12.15,1.45-18,1.45h0c-1.66,0-3.28-.02-4.87-.06h0c-4.79-.12-9.65-.38-14.27-.64h0c-4.55-.24-8.78-.47-12.72-.57h0c-1.12-.03-2.34-.05-3.59-.05h0c-2.18,0-4.48,.06-6.51,.25h0c-2.02,.17-3.81,.5-4.68,.8h0c-1.68,.51-5.31,2.66-9.24,5.65h0c-3.99,2.98-8.48,6.76-12.97,10.54h0c-7.18,6.04-14.65,12.36-22.5,17.38h0c-7.84,4.97-16.18,8.85-25.39,8.98h-.06Z"/><path class="cls-3" d="M320.86,319.09l-3.86,19.37,20.53-11.62,11.85-6.74c5.61,23.13,15.22,74.42-.75,109.02l-7.83,17.01,21.69-6.81c129.39-40.37,59.31-192.8,56.31-199.27l-4.06-8.53-10.56,4.06-25.85,9.95c14.71-90.54-77.54-142.5-78.52-143.07l-24.03-13.21,7.75,21.95c.35,1.06,8.37,29.95-54.69,66.04-57.92,33.11-53.93,88.62-48.21,114.54l-23.34-5.38-10.83-2.52-2.43,8.49c-26.02,89.22,23.28,127.24,69.21,143.41l22.96,8.08-8.71-18.22c-7.96-16.74-9.95-38.61-6.03-65.11l9.94,3.34,18.53,6.31-3.98-15.28c-.16-.65-15.51-62.34,20.23-92.49,19.8-16.66,28.96-32.36,33.05-44.55,13.98,19.25,31.01,53.87,21.62,101.21Z"/><g><path class="cls-2" d="M187.47,486.51c-1.63,0-3.21-.09-4.76-.27h0c-6.31-.68-12.06-2.67-16.79-5.76h0c-4.74-3.08-8.3-7.19-10.7-11.39h0c-4.8-8.5-5.59-17.03-5.64-23.61h0c0-7.22,1.16-12.37,1.28-12.96h0c1.54-6.89,8.38-11.24,15.29-9.71h0c6.9,1.54,11.26,8.37,9.73,15.26h0c-.01,.05-.03,.15-.06,.29h0c-.06,.32-.15,.86-.24,1.54h0c-.19,1.38-.38,3.39-.38,5.58h0c0,3,.4,6.32,1.27,8.74h0c.92,2.48,1.92,3.82,3.48,4.86h0c1.08,.69,2.67,1.4,5.57,1.74h0c.75,.09,1.39,.12,1.94,.12h0c1.61-.02,2.27-.23,2.99-.58h0c.71-.38,1.77-1.09,3.36-3.22h0c3.2-4.18,7.55-14.03,11.71-30.84h0c3.73-14.88,15.68-57.09,33.88-106.91h0c18.22-49.81,42.51-106.99,71.42-151.79h0c19.38-29.82,40.56-54.47,65.49-67.52h0c6.28-3.25,14.01-.8,17.27,5.47h0c3.26,6.28,.8,13.99-5.48,17.24h0c-18.09,9.2-37.76,30.67-55.75,58.67h0c-18.07,27.96-34.78,62.17-49.14,96.29h0c-28.74,68.23-48.25,136.39-52.84,154.75h0c-2.58,10.3-5.23,18.69-8.18,25.71h0c-2.96,7-6.23,12.71-10.41,17.38h0c-2.78,3.1-6.03,5.7-9.63,7.53h0c-4.74,2.45-9.87,3.39-14.5,3.39h-.18Z"/><path class="cls-2" d="M277.45,437.89c-8.77-4.89-16.04-13.23-19.28-23.72h0c-2.14-6.75-3.17-13.33-3.17-19.64h0c-.04-14.44,5.52-26.93,13.12-36.47h0c7.62-9.62,17.15-16.74,26.35-22.21h0c18.43-10.87,35.9-15.26,36.58-15.46h0c6.85-1.75,13.83,2.38,15.58,9.23h0c1.75,6.84-2.39,13.8-9.24,15.55h-.01s-.11,.03-.22,.06h0c-.21,.06-.56,.15-1.01,.29h0c-.91,.26-2.29,.68-4,1.25h0c-3.44,1.14-8.29,2.92-13.6,5.36h0c-10.66,4.81-23.07,12.48-30.29,21.76h0c-4.85,6.24-7.59,12.67-7.63,20.65h0c0,3.54,.57,7.46,1.98,11.93h0c1.46,4.38,3.68,6.92,7.52,9.2h0c3.83,2.2,9.53,3.64,16.43,3.63h0c10.88,.03,24.41-3.61,36.51-10.66h0c12.15-7.03,22.81-17.28,29.24-29.83h0c4.3-8.38,6.83-17.79,6.84-28.55h0c0-4.55-.47-9.36-1.47-14.43h0c-3.94-19.08-11.37-27.94-19-33.2h0c-7.68-5.22-16.81-6.71-24.15-6.7h0c-6.05,0-10.63,1.01-11.18,1.16h0c-.2,.05-.33,.07-.37,.09h0c-6.82,1.58-13.65-2.59-15.33-9.37h0c-1.69-6.78,2.39-13.66,9.16-15.44h0c.07-.02,.2-.05,.38-.1h.03c.06-.02,.15-.05,.29-.08h0c.27-.06,.71-.17,1.28-.32h0c1.14-.31,2.86-.8,5-1.46h0c4.3-1.33,10.31-3.41,16.93-6.3h0c13.28-5.74,28.78-14.96,38.05-26.77h0c6.22-7.93,9.91-16.5,9.95-27.28h0c0-1.23-.05-2.49-.15-3.79h0c-1.18-13.75-8.78-25.62-22.55-34.96h0c-13.71-9.23-33.46-15.15-56.29-15.12h0c-18.88,0-39.79,3.99-61.08,13.1h0c-27.58,11.83-44.19,27.8-54.29,43.74h0c-10.06,15.92-13.48,32.16-13.46,43.83h0c0,3.62,.33,6.77,.81,9.18h0c.47,2.41,1.15,4.12,1.45,4.61h0c1.84,3.44,5.47,7.83,9.5,10.82h0c4.07,3.08,8.27,4.63,11.43,4.59h0c2.24-.05,4.24-.51,7.03-2.43h0c2.74-1.93,6.22-5.61,9.78-12.17h0c3.37-6.2,11.15-8.51,17.37-5.15h0c6.23,3.36,8.54,11.12,5.16,17.33h0c-4.94,9.09-10.72,16.05-17.51,20.85h0c-6.74,4.82-14.53,7.17-21.84,7.13h0c-10.62-.05-19.69-4.37-26.86-9.74h0c-7.2-5.45-12.77-12.1-16.58-18.99h0c-1.98-3.66-3.21-7.54-4.08-11.87h0c-.86-4.31-1.3-9.05-1.3-14.17h0c.01-16.4,4.59-37.09,17.4-57.45h0c12.79-20.34,33.93-40,65.88-53.62h0c24.38-10.43,48.7-15.17,71.17-15.17h0c27.17,.02,51.73,6.86,70.59,19.47h0c18.79,12.49,31.99,31.55,33.79,54.11h0c.16,1.97,.24,3.92,.24,5.86h0c.05,17.13-6.44,31.85-15.49,43.17h0c-8.72,10.95-19.66,19.14-30.37,25.44h0c1.52,.84,3.03,1.76,4.53,2.77h0c13.59,9.02,25.08,25.24,29.8,49.38h0c1.33,6.67,1.97,13.16,1.97,19.44h0c.01,14.86-3.61,28.48-9.67,40.22h0c-6.05,11.77-14.47,21.7-24.04,29.69h0c-19.22,15.94-42.84,24.59-64.51,24.69h0c-10.29-.02-20.33-2.02-29.11-6.98h0Z"/></g></g></g></g></svg>